# xmcd CD Database Entry
#
# Track frame offsets:
# 182
# 16120
# 21930
# 33620
# 38677
# 43377
# 52817
# 70845
# 82115
# 86515
# 91045
# 108632
# 120607
# 150180
# 154925
#
# Disc length: 2194 seconds
#
# Revision: 1
# Processed by: cddbd v1.4b41PL1 Copyright (c) Steve Scherf et al.
# Submitted via: tcd 2.0b
#
DISCID=b108900f
DTITLE=Neznámý - Neznámý
DYEAR=1900
DGENRE=
TTITLE0=Skladba 1
TTITLE1=Skladba 2
TTITLE2=Skladba 3
TTITLE3=Skladba 4
TTITLE4=Skladba 5
TTITLE5=Skladba 6
TTITLE6=Skladba 7
TTITLE7=Skladba 8
TTITLE8=Skladba 9
TTITLE9=Skladba 10
TTITLE10=Skladba 11
TTITLE11=Skladba 12
TTITLE12=Skladba 13
TTITLE13=Skladba 14
TTITLE14=Skladba 15
EXTD=
EXTT0=
EXTT1=
EXTT2=
EXTT3=
EXTT4=
EXTT5=
EXTT6=
EXTT7=
EXTT8=
EXTT9=
EXTT10=
EXTT11=
EXTT12=
EXTT13=
EXTT14=
PLAYORDER=
